<svg width="366" height="227" viewBox="0 0 366 227" fill="none" xmlns="http://www.w3.org/2000/svg">
<path d="M63 0L54.5 26.5L48 0H18.5L54.5 90.5L92.5 0H63Z" fill="white"/>
<path d="M349 90.5H323C323 90.5 322.305 45.5 322.305 39C322.305 32.5 323.338 26.4464 318 26.5C312.662 26.5536 313.411 33 313.411 39C313.411 45 312.898 82.2284 313 90.5H287.5V27C287.5 12 300 0 318 0C336 0 349 11.5 349 27V90.5Z" fill="white"/>
<path d="M185 183.5C316 183.5 366 116 366 116C366 116 316 227 185 227C54 227 0.5 116 0.5 116C0.5 116 54 183.5 185 183.5Z" fill="white"/>
<path fill-rule="evenodd" clip-rule="evenodd" d="M136.5 91C161.629 91 182 70.629 182 45.5C182 20.371 161.629 0 136.5 0C111.371 0 91 20.371 91 45.5C91 70.629 111.371 91 136.5 91ZM136.5 64C146.717 64 155 55.7173 155 45.5C155 35.2827 146.717 27 136.5 27C126.283 27 118 35.2827 118 45.5C118 55.7173 126.283 64 136.5 64Z" fill="white"/>
<path fill-rule="evenodd" clip-rule="evenodd" d="M233.5 91C258.629 91 279 70.629 279 45.5C279 20.371 258.629 0 233.5 0C208.371 0 188 20.371 188 45.5C188 70.629 208.371 91 233.5 91ZM233.5 64C243.717 64 252 55.7173 252 45.5C252 35.2827 243.717 27 233.5 27C223.283 27 215 35.2827 215 45.5C215 55.7173 223.283 64 233.5 64Z" fill="white"/>
</svg>
